<svg width="3412" height="2614" viewBox="0 0 3412 2614" fill="none" xmlns="http://www.w3.org/2000/svg">
<g opacity="0.5">
<path opacity="0.9" d="M1634.71 2157.7C902.853 2209.29 290.304 1977.9 266.544 1640.86C242.783 1303.82 816.807 988.768 1548.66 937.173C2280.52 885.578 2893.07 1116.98 2916.83 1454.02C2940.59 1791.05 2366.57 2106.1 1634.71 2157.7Z" stroke="white" stroke-width="0.8" stroke-miterlimit="10"/>
<path opacity="0.9" d="M1610.03 2135.81C874.004 2145.66 273.662 1878.79 269.126 1539.74C264.589 1200.68 857.576 917.843 1593.6 907.994C2329.62 898.146 2929.96 1165.02 2934.5 1504.07C2939.04 1843.13 2346.05 2125.97 1610.03 2135.81Z" stroke="white" stroke-width="0.8" stroke-miterlimit="10"/>
<path opacity="0.9" d="M1586.06 2117.37C845.819 2085.51 257.636 1783.1 272.32 1441.91C287.005 1100.72 898.997 849.964 1639.24 881.824C2379.49 913.684 2967.67 1216.1 2952.98 1557.29C2938.3 1898.48 2326.31 2149.23 1586.06 2117.37Z" stroke="white" stroke-opacity="0.9" stroke-width="0.8" stroke-miterlimit="10"/>
<path opacity="0.9" d="M1564.03 2093.75C819.496 2020.13 243.364 1683 277.205 1340.75C311.047 998.505 942.047 780.74 1686.58 854.361C2431.12 927.981 3007.25 1265.11 2973.41 1607.35C2939.57 1949.6 2308.57 2167.37 1564.03 2093.75Z" stroke="white" stroke-opacity="0.8" stroke-width="0.8" stroke-miterlimit="10"/>
<path opacity="0.9" d="M1541.29 2075.53C792.324 1960.18 228.205 1587.26 281.289 1242.59C334.373 897.929 984.559 712.036 1733.52 827.388C2482.48 942.741 3046.6 1315.66 2993.52 1660.32C2940.43 2004.99 2290.25 2190.88 1541.29 2075.53Z" stroke="white" stroke-opacity="0.7" stroke-width="0.8" stroke-miterlimit="10"/>
<path opacity="0.9" d="M1516.94 2052.55C764.477 1895.56 213.025 1487.72 285.236 1141.61C357.446 795.502 1025.97 642.189 1778.43 799.178C2530.9 956.168 3082.35 1364.01 3010.14 1710.12C2937.93 2056.23 2269.4 2209.54 1516.94 2052.55Z" stroke="white" stroke-opacity="0.6" stroke-width="0.8" stroke-miterlimit="10"/>
<path opacity="0.9" d="M1493.4 2035.8C735.903 1836.87 196.124 1392.7 287.773 1043.71C379.423 694.724 1067.79 573.081 1825.29 772.012C2582.79 970.943 3122.57 1415.12 3030.92 1764.1C2939.27 2113.09 2250.9 2234.73 1493.4 2035.8Z" stroke="white" stroke-opacity="0.5" stroke-width="0.8" stroke-miterlimit="10"/>
<path opacity="0.9" d="M1470.71 2013.77C710.153 1773.43 183.496 1294.11 294.391 943.174C405.287 592.236 1111.74 502.574 1872.3 742.907C2632.86 983.241 3159.51 1462.56 3048.62 1813.5C2937.72 2164.44 2231.27 2254.1 1470.71 2013.77Z" stroke="white" stroke-opacity="0.4" stroke-width="0.8" stroke-miterlimit="10"/>
<path opacity="0.9" d="M1446.1 1993.5C680.725 1711.23 165.535 1196.97 295.392 844.852C425.248 492.734 1150.98 436.105 1916.35 718.366C2681.73 1000.63 3196.92 1514.89 3067.06 1867.01C2937.2 2219.13 2211.47 2275.76 1446.1 1993.5Z" stroke="white" stroke-opacity="0.3" stroke-width="0.8" stroke-miterlimit="10"/>
<path opacity="0.9" d="M1423.34 1970.74C653.72 1646.71 150.533 1097.32 299.437 743.655C448.342 389.987 1192.95 365.962 1962.57 689.993C2732.19 1014.02 3235.37 1563.41 3086.47 1917.08C2937.56 2270.74 2192.96 2294.77 1423.34 1970.74Z" stroke="white" stroke-opacity="0.2" stroke-width="0.8" stroke-miterlimit="10"/>
<path opacity="0.9" d="M1401.46 1950.94C628.009 1585.29 137.292 1000.57 305.418 644.938C473.543 289.301 1236.85 297.415 2010.3 663.062C2783.76 1028.71 3274.47 1613.43 3106.35 1969.06C2938.22 2324.7 2174.92 2316.58 1401.46 1950.94Z" stroke="white" stroke-opacity="0.1" stroke-width="0.8" stroke-miterlimit="10"/>
</g>
</svg>
