<svg width="1055" height="1055" viewBox="0 0 1055 1055" fill="none" xmlns="http://www.w3.org/2000/svg">
<path d="M594.816 992.207L578.113 875.979L561.41 759.752L529.882 527.047L499.605 294.177L485.406 177.617L471.206 61.0573L487.909 177.285L503.986 293.596L535.514 526.3L565.791 759.17L580.616 875.647L594.816 992.207Z" fill="white"/>
<path opacity="0.9" d="M615.307 978.662L593.72 868.813L572.758 758.883L531.379 538.312L491.333 318.2L472.166 207.394L453.082 97.2141L474.669 207.062L495.631 316.993L537.01 537.564L576.43 757.759L596.223 868.481L615.307 978.662Z" fill="white"/>
<path opacity="0.8" d="M635.713 964.49L609.242 861.021L583.396 757.47L532.874 549.575L482.977 341.597L459.008 237.797L434.957 133.37L461.511 237.464L487.357 341.016L537.797 548.285L587.694 756.263L611.745 860.689L635.713 964.49Z" fill="white"/>
<path opacity="0.7" d="M656.204 950.944L624.848 853.855L594.035 756.058L533.743 560.922L474.703 365.62L445.851 268.199L416.915 170.153L448.271 267.241L479.001 364.413L539.292 559.549L598.332 754.851L627.268 852.898L656.204 950.944Z" fill="white"/>
<path opacity="0.6" d="M676.609 936.773L640.369 846.064L605.38 755.189L535.237 572.187L466.429 389.644L432.609 297.977L398.789 206.31L435.029 297.019L470.017 387.894L540.16 570.896L608.969 753.439L642.789 845.106L676.609 936.773Z" fill="white"/>
<path opacity="0.5" d="M697.015 922.601L656.517 838.189L616.018 753.776L536.815 584.075L458.155 413.667L419.451 328.379L380.663 242.466L421.788 326.795L461.743 411.917L541.572 581.534L619.607 752.026L658.937 837.231L697.015 922.601Z" fill="white"/>
<path opacity="0.5" d="M717.505 909.056L672.122 831.023L627.282 752.281L537.684 595.423L449.881 437.69L406.209 358.156L363.247 279.165L408.629 357.198L453.387 435.314L542.441 592.88L630.87 750.531L674.459 829.439L717.505 909.056Z" fill="white"/>
<path opacity="0.4" d="M737.915 894.884L687.647 823.231L638.006 751.494L539.183 606.687L441.528 461.087L393.055 388.559L345.125 315.322L395.392 386.975L445.033 458.711L543.857 603.519L641.511 749.119L689.984 821.647L737.915 894.884Z" fill="white"/>
<path opacity="0.3" d="M758.403 881.338L703.252 816.064L648.643 750.082L540.677 617.95L433.253 485.11L379.813 418.335L326.999 351.478L382.15 416.752L436.133 482.817L544.725 614.865L652.148 747.706L705.506 813.855L758.403 881.338Z" fill="white"/>
<path opacity="0.2" d="M778.809 867.167L719.399 808.189L659.906 748.586L542.171 629.214L424.979 509.133L366.655 448.738L308.873 387.634L368.283 446.611L427.776 506.214L545.511 625.587L662.703 745.668L721.027 806.063L778.809 867.167Z" fill="white"/>
<path opacity="0.2" d="M799.216 852.996L734.922 800.399L670.627 747.8L543.667 640.478L416.706 533.157L353.414 478.515L290.831 424.417L355.125 477.015L419.42 529.613L547.006 636.851L673.341 744.256L736.633 798.898L799.216 852.996Z" fill="white"/>
<path opacity="0.2" d="M819.705 839.45L750.527 793.232L681.891 746.305L544.536 651.825L408.432 557.179L340.256 508.918L272.705 460.573L341.884 506.791L410.52 553.718L547.792 647.572L683.978 742.844L752.155 791.105L819.705 839.45Z" fill="url(#paint0_linear)"/>
<path opacity="0.3" d="M840.113 825.279L766.676 785.357L693.156 744.809L546.115 663.715L400.077 580.577L327.725 539.237L254.582 496.729L328.644 536.568L402.165 577.115L548.663 658.918L694.618 741.431L767.679 783.314L840.113 825.279Z" fill="url(#paint1_linear)"/>
<path opacity="0.4" d="M860.604 811.733L782.199 777.565L703.878 744.024L547.611 674.979L391.805 604.6L314.485 569.015L237.166 533.429L315.488 566.971L393.892 601.139L549.533 670.266L705.257 740.019L783.202 775.522L860.604 811.733Z" fill="url(#paint2_linear)"/>
<path opacity="0.5" d="M881.01 797.562L797.804 770.4L715.141 742.528L549.106 686.243L383.531 628.623L301.327 599.417L219.041 569.585L302.246 596.748L384.909 624.619L550.945 680.904L715.894 738.607L798.724 767.73L881.01 797.562Z" fill="url(#paint3_linear)"/>
<path opacity="0.3" d="M901.416 783.39L813.326 762.607L725.778 741.116L550.517 696.88L375.799 651.937L288.085 629.193L200.914 605.741L289.005 626.524L376.635 648.642L551.813 692.251L726.531 737.194L814.245 759.938L901.416 783.39Z" fill="url(#paint4_linear)"/>
<path opacity="0.3" d="M921.905 769.844L829.473 754.732L737.042 739.62L552.012 708.144L367.525 675.96L274.927 659.596L182.789 641.898L275.22 657.01L368.278 672.039L552.682 703.598L737.794 735.699L829.85 752.772L921.905 769.844Z" fill="url(#paint5_linear)"/>
<path opacity="0.4" d="M942.312 755.674L845.079 747.567L747.68 738.209L553.507 719.409L359.252 699.983L261.687 689.374L164.747 678.681L261.98 686.787L359.379 696.146L554.177 714.862L748.433 734.288L845.373 744.981L942.312 755.674Z" fill="url(#paint6_linear)"/>
<path opacity="0.4" d="M962.803 742.127L860.603 739.774L758.945 736.713L555.004 730.672L350.897 723.38L249.073 719.067L146.624 714.836L248.824 717.189L351.024 719.542L554.965 725.583L759.073 732.874L860.897 737.188L962.803 742.127Z" fill="url(#paint7_linear)"/>
<path opacity="0.4" d="M983.211 727.955L876.752 731.899L769.668 735.926L555.875 742.019L342.625 747.403L235.917 749.469L129.125 750.91L235.584 746.966L342.752 743.565L555.836 736.929L769.795 732.088L876.42 729.396L983.211 727.955Z" fill="url(#paint8_linear)"/>
<path opacity="0.4" d="M1003.62 713.786L892.274 724.108L780.931 734.432L557.37 753.283L334.268 770.802L222.676 779.247L111.083 787.693L222.343 776.744L333.769 767.046L557.331 748.195L780.433 730.677L892.025 722.231L1003.62 713.786Z" fill="url(#paint9_linear)"/>
<path opacity="0.4" d="M1024.11 700.239L907.879 716.943L791.568 733.02L558.864 764.548L325.994 794.825L209.517 809.65L92.9568 823.849L209.184 807.147L325.495 791.07L558.199 759.541L791.07 729.265L907.547 714.439L1024.11 700.239Z" fill="url(#paint10_linear)"/>
<defs>
<linearGradient id="paint0_linear" x1="516.757" y1="428.175" x2="223.848" y2="419.223" gradientUnits="userSpaceOnUse">
<stop stop-color="white"/>
<stop offset="1" stop-color="white" stop-opacity="0"/>
</linearGradient>
<linearGradient id="paint1_linear" x1="520.848" y1="461.382" x2="241.038" y2="461.327" gradientUnits="userSpaceOnUse">
<stop stop-color="white"/>
<stop offset="1" stop-color="white" stop-opacity="0"/>
</linearGradient>
<linearGradient id="paint2_linear" x1="566.09" y1="584.624" x2="226.007" y2="515.275" gradientUnits="userSpaceOnUse">
<stop stop-color="white"/>
<stop offset="1" stop-color="white" stop-opacity="0"/>
</linearGradient>
<linearGradient id="paint3_linear" x1="664.91" y1="709.708" x2="197.207" y2="552.892" gradientUnits="userSpaceOnUse">
<stop stop-color="white"/>
<stop offset="1" stop-color="white" stop-opacity="0"/>
</linearGradient>
<linearGradient id="paint4_linear" x1="533.512" y1="561.589" x2="138.453" y2="623.235" gradientUnits="userSpaceOnUse">
<stop stop-color="white"/>
<stop offset="1" stop-color="white" stop-opacity="0"/>
</linearGradient>
<linearGradient id="paint5_linear" x1="537.602" y1="594.797" x2="141.917" y2="630.341" gradientUnits="userSpaceOnUse">
<stop stop-color="white"/>
<stop offset="1" stop-color="white" stop-opacity="0"/>
</linearGradient>
<linearGradient id="paint6_linear" x1="541.775" y1="628.631" x2="103.525" y2="686.885" gradientUnits="userSpaceOnUse">
<stop stop-color="white"/>
<stop offset="1" stop-color="white" stop-opacity="0"/>
</linearGradient>
<linearGradient id="paint7_linear" x1="545.866" y1="661.837" x2="96.0283" y2="679.81" gradientUnits="userSpaceOnUse">
<stop stop-color="white"/>
<stop offset="1" stop-color="white" stop-opacity="0"/>
</linearGradient>
<linearGradient id="paint8_linear" x1="579.22" y1="736.719" x2="100.367" y2="720.089" gradientUnits="userSpaceOnUse">
<stop stop-color="white"/>
<stop offset="1" stop-color="white" stop-opacity="0"/>
</linearGradient>
<linearGradient id="paint9_linear" x1="554.443" y1="728.838" x2="89.3357" y2="769.975" gradientUnits="userSpaceOnUse">
<stop stop-color="white"/>
<stop offset="1" stop-color="white" stop-opacity="0"/>
</linearGradient>
<linearGradient id="paint10_linear" x1="612.248" y1="757.552" x2="59.8862" y2="844.496" gradientUnits="userSpaceOnUse">
<stop stop-color="white"/>
<stop offset="1" stop-color="white" stop-opacity="0"/>
</linearGradient>
</defs>
</svg>
