<svg width="1431" height="1176" viewBox="0 0 1431 1176" fill="none" xmlns="http://www.w3.org/2000/svg">
<g opacity="0.16">
<g filter="url(#filter0_f)">
<path d="M1250.12 636.734C1231.74 927.97 1170.4 1017.56 988.372 1006.07C669.443 985.941 1018.12 788.954 428.119 655.979C-161.885 523.003 462.751 170.302 753.548 188.656C1044.34 207.009 1268.5 345.498 1250.12 636.734Z" fill="url(#paint0_radial)" fill-opacity="0.7"/>
</g>
<g filter="url(#filter1_f)">
<path d="M1250.12 636.734C1231.74 927.97 1170.4 1017.56 988.372 1006.07C669.443 985.941 1018.12 788.954 428.119 655.979C-161.885 523.003 462.751 170.302 753.548 188.656C1044.34 207.009 1268.5 345.498 1250.12 636.734Z" fill="url(#paint1_radial)" fill-opacity="0.7"/>
</g>
</g>
<defs>
<filter id="filter0_f" x="0" y="0" width="1430.32" height="1175.06" filterUnits="userSpaceOnUse" color-interpolation-filters="sRGB">
<feFlood flood-opacity="0" result="BackgroundImageFix"/>
<feBlend mode="normal" in="SourceGraphic" in2="BackgroundImageFix" result="shape"/>
<feGaussianBlur stdDeviation="77" result="effect1_foregroundBlur"/>
</filter>
<filter id="filter1_f" x="0" y="0" width="1430.32" height="1175.06" filterUnits="userSpaceOnUse" color-interpolation-filters="sRGB">
<feFlood flood-opacity="0" result="BackgroundImageFix"/>
<feBlend mode="normal" in="SourceGraphic" in2="BackgroundImageFix" result="shape"/>
<feGaussianBlur stdDeviation="77" result="effect1_foregroundBlur"/>
</filter>
<radialGradient id="paint0_radial" cx="0" cy="0" r="1" gradientUnits="userSpaceOnUse" gradientTransform="translate(857.376 438.853) rotate(120.567) scale(570.995 736.277)">
<stop stop-color="white"/>
<stop offset="0.518888" stop-color="white" stop-opacity="0.464374"/>
<stop offset="0.96875" stop-color="white" stop-opacity="0"/>
</radialGradient>
<radialGradient id="paint1_radial" cx="0" cy="0" r="1" gradientUnits="userSpaceOnUse" gradientTransform="translate(921.5 349.5) rotate(122.571) scale(440.239 567.672)">
<stop stop-color="white"/>
<stop offset="0.257486" stop-color="white" stop-opacity="0.464374"/>
<stop offset="0.96875" stop-color="white" stop-opacity="0"/>
</radialGradient>
</defs>
</svg>
