<svg width="124" height="83" viewBox="0 0 124 83" fill="none" xmlns="http://www.w3.org/2000/svg">
<path opacity="0.9" d="M72.11 41.458C74.442 41.458 75.7913 41.4213 76.158 41.348C76.5247 41.2747 76.708 40.9887 76.708 40.49C76.708 39.8887 76.4513 39.5147 75.938 39.368C75.4247 39.2067 74.1487 39.126 72.11 39.126C68.0767 39.126 65.532 38.8327 64.476 38.246C63.42 37.6593 62.892 36.2073 62.892 33.89C62.892 31.7487 63.5813 30.3773 64.96 29.776C66.016 29.3213 68.3627 29.094 72 29.094C75.2413 29.094 77.2947 29.182 78.16 29.358C80.1987 29.7687 81.218 31.4993 81.218 34.55H76.378C76.378 33.714 76.1947 33.23 75.828 33.098C75.4613 32.9513 74.1927 32.878 72.022 32.878C69.8367 32.878 68.5753 32.922 68.238 33.01C67.9007 33.0833 67.732 33.3767 67.732 33.89C67.732 34.4327 68.018 34.7847 68.59 34.946C69.162 35.1073 70.3353 35.188 72.11 35.188C76.0993 35.188 78.666 35.5033 79.81 36.134C80.9687 36.7647 81.548 38.2167 81.548 40.49C81.548 42.5873 80.9027 43.9293 79.612 44.516C78.4973 45.0147 75.9893 45.264 72.088 45.264C69.0813 45.264 67.1307 45.198 66.236 45.066C64.8573 44.8607 63.9187 44.384 63.42 43.636C62.9213 42.8733 62.672 41.5607 62.672 39.698H67.512C67.512 40.578 67.7027 41.0913 68.084 41.238C68.4653 41.3847 69.8073 41.458 72.11 41.458ZM111.692 29.292L107.336 40.908H106.808L103.244 29.292H97.4585L93.8945 40.908H93.3665L89.0105 29.292H83.8405L89.9345 45H97.3485L100.01 35.364C100.025 35.3347 100.062 34.9607 100.12 34.242C100.179 33.5087 100.252 33.142 100.34 33.142C100.443 33.142 100.524 33.5087 100.582 34.242C100.641 34.9607 100.67 35.3347 100.67 35.364L103.354 45H110.768L116.862 29.292H111.692ZM118.479 45.022V29.314H123.319V45.022H118.479Z" fill="white"/>
<path d="M34.8624 21.2432L40.9841 3L6.81828 19.7788C-2.94197 24.572 -2.02045 38.6879 8.28127 42.1887L32.1416 50.2972L7.65467 61.7837L5.6141 77.9999L39.1819 61.5107C49.2059 56.5867 47.885 41.9894 37.1377 38.92L13.0962 32.054L34.8624 21.2432Z" fill="#212121"/>
<path fill-rule="evenodd" clip-rule="evenodd" d="M40.9841 3L37.5831 13.1351L0.0260991 31.4617C-0.269357 26.898 1.94055 22.1742 6.81828 19.7788L40.9841 3Z" fill="url(#paint0_linear)" fill-opacity="0.5"/>
<path fill-rule="evenodd" clip-rule="evenodd" d="M45.9745 49.8513L6.83203 68.3205L5.61401 78L39.1818 61.5108C44.0748 59.1072 46.2647 54.3988 45.9745 49.8513Z" fill="url(#paint1_linear)"/>
<path fill-rule="evenodd" clip-rule="evenodd" d="M45.5682 47.3891L0.0290527 31.5081C0.340717 36.0596 3.14518 40.4434 8.28114 42.1888L32.1415 50.2973L32.1105 50.3118L45.2832 54.7947C46.1387 52.414 46.2214 49.8093 45.5682 47.3891Z" fill="url(#paint2_linear)"/>
<defs>
<linearGradient id="paint0_linear" x1="38.2633" y1="-1.05405" x2="-2.32506" y2="32.9957" gradientUnits="userSpaceOnUse">
<stop stop-color="white"/>
<stop offset="1" stop-color="white" stop-opacity="0"/>
</linearGradient>
<linearGradient id="paint1_linear" x1="17.8575" y1="73.2702" x2="46.9556" y2="50.1085" gradientUnits="userSpaceOnUse">
<stop stop-color="#2B2B2B"/>
<stop offset="1" stop-color="#808080"/>
</linearGradient>
<linearGradient id="paint2_linear" x1="-54.923" y1="17.1892" x2="48.3211" y2="52.7457" gradientUnits="userSpaceOnUse">
<stop stop-color="#C0C0C0"/>
<stop offset="1" stop-color="#3A3A3A"/>
</linearGradient>
</defs>
</svg>
