<svg width="929" height="766" viewBox="0 0 929 766" fill="none" xmlns="http://www.w3.org/2000/svg">
<g opacity="0.5">
<path opacity="0.9" d="M681.126 383.108C681.126 451.47 736.545 506.89 804.908 506.89C873.27 506.89 928.689 451.47 928.689 383.108C928.689 314.745 873.27 259.326 804.908 259.326C736.545 259.326 681.126 314.745 681.126 383.108Z" stroke="white" stroke-width="0.6" stroke-miterlimit="10"/>
<path opacity="0.9" d="M653.544 383.109C653.544 455.558 712.276 514.29 784.726 514.29C857.175 514.29 915.907 455.558 915.907 383.109C915.907 310.659 857.175 251.927 784.726 251.927C712.276 251.927 653.544 310.659 653.544 383.109Z" stroke="white" stroke-width="0.6" stroke-miterlimit="10"/>
<path opacity="0.9" d="M624.617 383.108C624.617 460.388 687.265 523.036 764.544 523.036C841.824 523.036 904.471 460.388 904.471 383.108C904.471 305.829 841.824 243.181 764.544 243.181C687.265 243.181 624.617 305.829 624.617 383.108Z" stroke="white" stroke-width="0.6" stroke-miterlimit="10"/>
<path opacity="0.9" d="M706.017 527.745C625.962 506.217 578.199 424.145 599.726 344.763C621.253 264.709 703.326 217.618 783.38 238.472C863.435 260 911.198 342.072 889.671 421.454C868.144 500.836 786.071 549.272 706.017 527.745Z" stroke="white" stroke-width="0.6" stroke-miterlimit="10"/>
<path opacity="0.9" d="M564.742 383.309C564.852 471.734 636.623 543.329 725.049 543.22C813.475 543.11 885.069 471.339 884.96 382.913C884.851 294.487 813.079 222.893 724.653 223.002C636.228 223.111 564.633 294.883 564.742 383.309Z" stroke="white" stroke-width="0.6" stroke-miterlimit="10"/>
<path opacity="0.9" d="M533.123 383.331C533.245 477.701 610.147 554.105 704.888 553.983C799.63 553.861 876.335 477.26 876.214 382.89C876.092 288.519 799.191 212.116 704.449 212.238C609.707 212.36 533.002 288.961 533.123 383.331Z" stroke="white" stroke-width="0.6" stroke-miterlimit="10"/>
<path opacity="0.9" d="M501.508 383.109C501.508 484.167 583.432 566.091 684.489 566.091C785.547 566.091 867.471 484.167 867.471 383.109C867.471 282.051 785.547 200.128 684.489 200.128C583.432 200.128 501.508 282.051 501.508 383.109Z" stroke="white" stroke-width="0.6" stroke-miterlimit="10"/>
<path opacity="0.9" d="M469.217 383.108C469.217 490.482 556.562 577.526 664.308 577.526C772.053 577.526 859.398 490.482 859.398 383.108C859.398 275.734 772.053 188.69 664.308 188.69C556.562 188.69 469.217 275.734 469.217 383.108Z" stroke="white" stroke-width="0.6" stroke-miterlimit="10"/>
<path opacity="0.9" d="M541.199 562.727C441.635 506.218 407.326 379.745 464.508 280.182C521.69 181.291 648.162 146.982 747.053 203.491C846.617 260 880.925 386.473 823.744 486.036C767.235 585.6 640.762 619.909 541.199 562.727Z" stroke="white" stroke-width="0.6" stroke-miterlimit="10"/>
<path opacity="0.9" d="M623.719 602.839C745.211 603.035 843.859 505.006 844.054 383.885C844.249 262.764 745.919 164.418 624.426 164.222C502.934 164.026 404.286 262.055 404.091 383.176C403.896 504.296 502.226 602.643 623.719 602.839Z" stroke="white" stroke-width="0.6" stroke-miterlimit="10"/>
<path opacity="0.9" d="M371.672 383.109C371.672 511.289 475.883 615.199 604.435 615.199C732.987 615.199 837.198 511.289 837.198 383.109C837.198 254.929 732.987 151.018 604.435 151.018C475.883 151.018 371.672 254.929 371.672 383.109Z" stroke="white" stroke-width="0.6" stroke-miterlimit="10"/>
<path opacity="0.9" d="M338.708 383.109C338.708 518.719 448.643 628.654 584.253 628.654C719.864 628.654 829.798 518.72 829.798 383.109C829.798 247.498 719.864 137.564 584.253 137.564C448.643 137.564 338.708 247.498 338.708 383.109Z" stroke="white" stroke-width="0.6" stroke-miterlimit="10"/>
<path opacity="0.9" d="M305.072 383.108C305.072 525.778 421.03 641.435 564.072 641.435C707.113 641.435 823.071 525.778 823.071 383.108C823.071 240.438 707.113 124.781 564.072 124.781C421.03 124.781 305.072 240.438 305.072 383.108Z" stroke="white" stroke-width="0.6" stroke-miterlimit="10"/>
<path opacity="0.9" d="M272.108 383.108C272.108 533.209 393.789 654.889 543.89 654.889C693.99 654.889 815.671 533.209 815.671 383.108C815.671 233.007 693.99 111.327 543.89 111.327C393.789 111.327 272.108 233.007 272.108 383.108Z" stroke="white" stroke-opacity="0.9" stroke-width="0.6" stroke-miterlimit="10"/>
<path opacity="0.9" d="M238.472 383.108C238.472 540.639 366.176 668.344 523.708 668.344C681.239 668.344 808.944 540.639 808.944 383.108C808.944 225.576 681.239 97.8719 523.708 97.8719C366.176 97.8719 238.472 225.576 238.472 383.108Z" stroke="white" stroke-opacity="0.8" stroke-width="0.6" stroke-miterlimit="10"/>
<path opacity="0.9" d="M204.163 383.108C204.163 548.07 338.192 681.798 503.526 681.798C668.86 681.798 802.889 548.07 802.889 383.108C802.889 218.146 668.86 84.4175 503.526 84.4175C338.192 84.4175 204.163 218.146 204.163 383.108Z" stroke="white" stroke-opacity="0.7" stroke-width="0.6" stroke-miterlimit="10"/>
<path opacity="0.9" d="M170.527 383.109C170.527 555.873 310.58 695.926 483.345 695.926C656.109 695.927 796.162 555.873 796.162 383.109C796.162 210.344 656.109 70.2911 483.345 70.2911C310.58 70.2911 170.527 210.344 170.527 383.109Z" stroke="white" stroke-opacity="0.6" stroke-width="0.6" stroke-miterlimit="10"/>
<path opacity="0.9" d="M137.563 383.109C137.563 563.304 283.64 709.381 463.835 709.381C644.03 709.381 790.107 563.304 790.107 383.109C790.107 202.914 644.03 56.8367 463.835 56.8367C283.64 56.8366 137.563 202.914 137.563 383.109Z" stroke="white" stroke-opacity="0.5" stroke-width="0.6" stroke-miterlimit="10"/>
<path opacity="0.9" d="M103.254 383.108C103.254 571.106 255.656 723.508 443.654 723.508C631.651 723.508 784.053 571.106 784.053 383.108C784.053 195.111 631.651 42.7089 443.654 42.7088C255.656 42.7088 103.254 195.111 103.254 383.108Z" stroke="white" stroke-opacity="0.4" stroke-width="0.6" stroke-miterlimit="10"/>
<path opacity="0.9" d="M422.85 737.087C618.65 737.339 777.58 579.117 777.832 383.689C778.083 188.261 619.559 29.6313 423.76 29.3797C227.96 29.128 69.0295 187.35 68.7783 382.778C68.5271 578.206 227.05 736.836 422.85 737.087Z" stroke="white" stroke-opacity="0.3" stroke-width="0.6" stroke-miterlimit="10"/>
<path opacity="0.9" d="M35.3086 383.109C35.3086 586.339 200.06 751.09 403.29 751.09C606.52 751.09 771.271 586.339 771.271 383.109C771.271 179.879 606.52 15.1279 403.29 15.1279C200.06 15.1279 35.3086 179.879 35.3086 383.109Z" stroke="white" stroke-opacity="0.2" stroke-width="0.6" stroke-miterlimit="10"/>
<path opacity="0.9" d="M1.00004 383.108C1.00004 594.141 172.076 765.217 383.108 765.217C594.141 765.217 765.217 594.141 765.217 383.108C765.217 172.076 594.141 0.999993 383.108 0.999983C172.076 0.999974 1.00005 172.076 1.00004 383.108Z" stroke="white" stroke-opacity="0.1" stroke-width="0.6" stroke-miterlimit="10"/>
</g>
</svg>
