<svg width="18" height="16" viewBox="0 0 18 16" xmlns="http://www.w3.org/2000/svg">
<path fill-rule="evenodd" clip-rule="evenodd" d="M1.24248 6.83112C5.90681 4.79895 9.01709 3.45922 10.5733 2.81193C15.0167 0.963776 15.94 0.642733 16.5418 0.632132C16.6741 0.6298 16.9701 0.662603 17.1618 0.818153C17.3236 0.949497 17.3682 1.12692 17.3895 1.25145C17.4108 1.37598 17.4373 1.65966 17.4163 1.88132C17.1755 4.41129 16.1336 10.5509 15.6035 13.3845C15.3792 14.5835 14.9376 14.9855 14.5101 15.0249C13.5809 15.1104 12.8754 14.4108 11.9754 13.8209C10.5672 12.8978 9.77169 12.3232 8.40478 11.4224C6.82508 10.3814 7.84913 9.80926 8.7494 8.8742C8.985 8.62949 13.0789 4.90582 13.1581 4.56803C13.168 4.52578 13.1772 4.3683 13.0836 4.28515C12.9901 4.20199 12.852 4.23043 12.7524 4.25304C12.6111 4.2851 10.3615 5.77202 6.00348 8.71381C5.36493 9.15228 4.78655 9.36592 4.26834 9.35473C3.69706 9.34239 2.59814 9.03172 1.78121 8.76616C0.779208 8.44045 -0.0171629 8.26825 0.0521831 7.71509C0.0883028 7.42697 0.485069 7.13232 1.24248 6.83112Z"/>
</svg>
