<svg width="240" height="240" viewBox="0 0 240 240" fill="none" xmlns="http://www.w3.org/2000/svg">
  <rect width="240" height="240" rx="45" fill="white"/>
  <path d="M141.662 84.5675L152.841 51L90.4508 81.873C72.6277 90.6925 74.3105 116.666 93.1223 123.107L136.693 138.027L91.9781 159.162L88.2518 189L149.549 158.66C167.854 149.6 165.442 122.74 145.817 117.093L101.915 104.459L141.662 84.5675Z" fill="#212121"/>
  <path fill-rule="evenodd" clip-rule="evenodd" d="M152.841 51L146.63 69.6486L78.0477 103.369C77.5081 94.9724 81.5436 86.2806 90.4508 81.873L152.841 51Z" fill="url(#paint0_linear)" fill-opacity="0.5"/>
  <path fill-rule="evenodd" clip-rule="evenodd" d="M161.954 137.207L90.476 171.19L88.2518 189L149.549 158.66C158.485 154.237 162.483 145.574 161.954 137.207Z" fill="url(#paint1_linear)"/>
  <path fill-rule="evenodd" clip-rule="evenodd" d="M161.211 132.676L78.0531 103.455C78.6222 111.83 83.7434 119.896 93.1221 123.107L136.693 138.027L136.637 138.054L160.691 146.302C162.253 141.922 162.404 137.129 161.211 132.676Z" fill="url(#paint2_linear)"/>
  <defs>
    <linearGradient id="paint0_linear" x1="147.872" y1="43.5405" x2="73.2901" y2="105.635" gradientUnits="userSpaceOnUse">
      <stop stop-color="white"/>
      <stop offset="1" stop-color="white" stop-opacity="0"/>
    </linearGradient>
    <linearGradient id="paint1_linear" x1="110.609" y1="180.297" x2="164.057" y2="138.075" gradientUnits="userSpaceOnUse">
      <stop stop-color="#2B2B2B"/>
      <stop offset="1" stop-color="#808080"/>
    </linearGradient>
    <linearGradient id="paint2_linear" x1="-22.2942" y1="77.1081" x2="166.54" y2="141.649" gradientUnits="userSpaceOnUse">
      <stop stop-color="#C0C0C0"/>
      <stop offset="1" stop-color="#3A3A3A"/>
    </linearGradient>
  </defs>
</svg>
